<?xml version="1.0" encoding="utf-8"?>
<!-- Generator: Adobe Illustrator 19.2.1, SVG Export Plug-In . SVG Version: 6.00 Build 0)  -->
<svg version="1.1" id="Layer_1" xmlns="http://www.w3.org/2000/svg" xmlns:xlink="http://www.w3.org/1999/xlink" x="0px" y="0px"
	 viewBox="0 0 2805.8 350" style="enable-background:new 0 0 2805.8 350;" xml:space="preserve">
<style type="text/css">
	.st0{fill:#212121;}
	.st1{fill:#E0E0E0;}
	.st2{fill:#FCB316;}
	.st3{fill:#E45325;}
</style>
<g id="phase-01_1_">
	<g>
		<path id="body_14_" class="st0" d="M61,46.7c0,0,29.2,22.6,16.4,57.1s-4.6,48,17.4,65.2h0c-3.7,6.3-4.6,13.9-1.7,21.6
			c7.1,18.7,14.2,25,23.7,32c4.6,5,0.1,31,0.1,31c-1.2,11.2,8.6,49,8.6,49c3.5,3.8,10.3,2.7,10.3,2.7c4.4,5.6,7.7,0,7.7,0
			c10.9-8.3-11.2-14.5-11.2-14.5c-1.6-28.8,9.3-54.9,9.3-54.9s-2.5,8.8-3.2,13.6c-0.8,5.7,7.7,32.7,7.7,32.7c0,8.7,4.5,8.9,4.5,8.9
			c4.3,2.9,10.7,0.3,10.7,0.3c5.6,4.5,7.5-1.7,7.5-1.7c8.8-10.5-14.2-11.6-14.2-11.6l0,0c-3.5-10.3,0.4-39.8,0.4-39.8
			c6.1-8.4,9.3-15.9,10.9-21.9c0.6-1.7,2-4.3,4.5-6.4c1,5.1,3,15,6.1,27.6c4.6,18.4,6.6,41.7,6.6,41.7c-0.3,6.9,4,8.9,4,8.9
			c4.1,2.8,11.3,2.3,11.3,2.3c5.2,3.4,7.4-0.1,7.4-0.1c1.3-2,1.9-3.8,2-5.2c2.2,0.2,3.9-0.2,3.9-0.2c4.4,5.3,7.4-0.1,7.4-0.1
			c10.4-8.2-11.1-14-11.1-14c-0.7-3.1-1.1-17.9,0-36.1c1.1-18.1,14.2-31.7,14.2-31.7c7.6-4.8,10.2-12.6,10.8-21.9l0,0
			c1-7.1,9.6-13,9.6-13c6.6,6.9,14.9,1.3,14.9,1.3c15.6,10.2,18-5.3,18-5.3c4-1.8,6.8-4.3,8.1-12.2s-2.7-21.8-2.7-21.8
			c2-8.1-1.4-18.4-1.4-18.4c-1-0.9-3.7,1.3-3.7,1.3c-2.2,5.5-8.7,12.2-8.7,12.2s-10-10.2-23.3-2.1c0,0-2.5,0.9-4.3-1.9
			c0,0-8.2-10.2-13.6-13.7c0,0-4.9,8.3,0.9,25.7c0,0-2.1,8.1,1.1,13.6c0,0,0.7,5.5-6.6,4.3c-6.3-5.6-14.6-9.2-23.1-9.2
			c-5.1,0-9.9,1.1-14.1,3.2c0,0,0,0,0,0c0,0,0,0,0,0c-2.1,1-4.2,2.3-6,3.7c-8.7,4.7-25.5,11.3-43.1,5.5c0,0,0.4,0.2,1.1,0.5
			c-1.7-0.3-3.5-0.6-5.3-0.7c-5.7-0.5-11-0.1-15.8,1.2l0,0c0,0-33.3,1-31.5-31.3c0,0,18.1-54.4-13.7-77C69.4,46.7,52.2,37,61,46.7z
			 M192.5,207.4c0.4,0.1,0.8,0.1,1.2,0.2c0.1,0.2,0.2,0.6,0.4,1.1c2.1,9.4,3.1,64.2,3.1,64.2c0.1,1.4,0.4,2.6,0.7,3.7
			c-1.9-0.4-3.4-0.4-3.4-0.4c-1-2.4-3.2-36.6-4.4-45.8C189.3,222.7,190.6,209.7,192.5,207.4z"/>
		<path id="jaw" class="st0" d="M257.3,171.6c3.9,4,11.6,2.5,11.6,2.5c-15.6,10.9-26.1-2.9-26.1-2.9
			C249.8,174.9,257.3,171.6,257.3,171.6z"/>
	</g>
	<path class="st1" d="M290.4,165.4C290.4,165.4,290.4,165.4,290.4,165.4l-24.9-2c-0.6,0-1.1-0.6-1-1.2c0-0.6,0.6-1.1,1.2-1l24.8,2
		c0.6,0,1.1,0.6,1,1.2C291.5,165,291,165.4,290.4,165.4z"/>
	<path class="st1" d="M288.6,174.6c-0.1,0-0.3,0-0.4-0.1l-21.4-8.1c-0.6-0.2-0.9-0.9-0.6-1.4c0.2-0.6,0.9-0.9,1.4-0.6l21.4,8.1
		c0.6,0.2,0.9,0.9,0.6,1.4C289.5,174.3,289.1,174.6,288.6,174.6z"/>
	<path class="st1" d="M280.9,181.7c-0.2,0-0.5-0.1-0.7-0.2l-14.7-11.6c-0.5-0.4-0.6-1.1-0.2-1.6c0.4-0.5,1.1-0.6,1.6-0.2l14.7,11.6
		c0.5,0.4,0.6,1.1,0.2,1.6C281.6,181.5,281.2,181.7,280.9,181.7z"/>
	<path class="st1" d="M269.1,181.2c-0.4,0-0.8-0.2-1-0.6l-6.3-11.1c-0.3-0.5-0.1-1.2,0.4-1.5c0.5-0.3,1.2-0.1,1.5,0.4l6.3,11.1
		c0.3,0.5,0.1,1.2-0.4,1.5C269.5,181.1,269.3,181.2,269.1,181.2z"/>
	<path class="st1" d="M247.3,160.6c-0.1,0-0.2,0-0.2,0l-24.2-5.6c-0.6-0.1-1-0.7-0.8-1.3c0.1-0.6,0.7-1,1.3-0.8l24.2,5.6
		c0.6,0.1,1,0.7,0.8,1.3C248.3,160.2,247.8,160.6,247.3,160.6z"/>
	<path class="st1" d="M222,164.3c-0.6,0-1.1-0.5-1.1-1c0-0.6,0.4-1.1,1-1.2l22.8-1.3c0.6,0,1.1,0.4,1.2,1c0,0.6-0.4,1.1-1,1.2
		L222,164.3C222,164.3,222,164.3,222,164.3z"/>
	<path class="st1" d="M227.2,173.4c-0.4,0-0.9-0.3-1-0.7c-0.2-0.6,0.1-1.2,0.6-1.4l17.5-6.6c0.6-0.2,1.2,0.1,1.4,0.6
		c0.2,0.6-0.1,1.2-0.6,1.4l-17.5,6.6C227.5,173.4,227.3,173.4,227.2,173.4z"/>
	<path class="st1" d="M238.6,176.4c-0.3,0-0.6-0.1-0.8-0.4c-0.4-0.4-0.4-1.1,0.1-1.6l8.9-8.3c0.4-0.4,1.1-0.4,1.6,0.1
		c0.4,0.4,0.4,1.1-0.1,1.6l-8.9,8.3C239.1,176.3,238.9,176.4,238.6,176.4z"/>
	<path id="right-eye_1_" class="st2" d="M250.7,149.3c0,0-0.8-14.2-15.2-8.8C235.5,140.6,236,155.2,250.7,149.3z"/>
	<path id="left-eye_1_" class="st2" d="M262.6,150c0,0,2.3-14,16.1-7C278.7,143,276.6,157.5,262.6,150z"/>
	<path id="nose" class="st3" d="M255.6,156c0.4,0,0.9,0,1.4,0l0,0c0,0,0.7,0,1.5,0c0,0,0,0,0,0v0c0.4,0,0.8,0,1.2,0.1
		c3.3,0.3,2.2,1.9,2.2,1.9l-1.8,2c-1.5,1.6-2.2,1.9-2.5,2c0,0,0,0,0,0c0,0,0,0,0,0c-0.3,0-0.9-0.5-2.4-2.1l-1.7-2.1
		C253.3,157.8,252.3,156.1,255.6,156z"/>
	<path id="right-pupil_1_" class="st0" d="M241.9,144.2c1,0.3,2-0.3,2.2-1.3c0.2-0.7-0.1-1.4-0.6-1.9c0.4,0,0.7,0,1.1,0.1
		c1.9,0.5,2.6,2.5,2.1,4.5c-0.5,1.9-2.1,3.1-4,2.6c-1.9-0.5-3.1-2.5-2.6-4.5c0.1-0.4,0.2-0.7,0.4-1
		C240.7,143.4,241.2,144,241.9,144.2z"/>
	<path id="left-pupil_1_" class="st0" d="M268.7,145.3c1,0.3,2-0.3,2.2-1.3c0.2-0.7-0.1-1.4-0.6-1.9c0.4,0,0.7,0,1.1,0.1
		c1.9,0.5,2.6,2.5,2.1,4.5s-2.1,3.1-4,2.6c-1.9-0.5-3.1-2.5-2.6-4.5c0.1-0.4,0.2-0.7,0.4-1C267.5,144.5,268,145.1,268.7,145.3z"/>
</g>
<g id="phase-02_1_">
	<g>
		<path id="body-b" class="st0" d="M472,154.4c0,0-17.6-11.9-19.6-41.3c0,0,1.3-45.9-37.5-65.4c0,0-17.3-9.7-8.4,0
			c0,0,29.2,25.8,25.7,62.5c-2.8,29.4,1.6,37.6,23.6,54.7h0c-3.7,6.3-7.3,19.6-4.4,27.3c7.1,18.7,13.8,19.2,24.2,30.8
			c4.6,5-4.1,29.6-4.1,29.6c-1.2,11.2,11.8,49,11.8,49c3.5,3.8,10.3,2.7,10.3,2.7c4.4,5.6,7.7,0,7.7,0c10.9-8.3-11.2-14.5-11.2-14.5
			c-1.6-28.8,2.4-52.5,2.4-52.5s1.1,11.7,0.4,16.4c-0.8,5.7,10.6,32.7,10.6,32.7c0,8.7,4.5,8.9,4.5,8.9c4.3,2.9,10.7,0.3,10.7,0.3
			c5.6,4.5,7.5-1.7,7.5-1.7c3.3-11.4-14.2-11.6-14.2-11.6l0,0c-3.5-10.3-3.1-41-3.1-41c6.1-8.4,10-14.8,11.5-22.3
			c0.6-1.7,0.8-7.7,0.8-7.7c1,5.1,3,15,6.1,27.6c4.6,18.4,11.1,41.7,11.1,41.7c-0.3,6.9,4,8.9,4,8.9c4.1,2.8,11.3,2.3,11.3,2.3
			c5.2,3.4,7.4-0.1,7.4-0.1c1.3-2,1.9-3.8,2-5.2c2.2,0.2,3.9-0.2,3.9-0.2c4.4,5.3,7.4-0.1,7.4-0.1c10.4-8.2-11.1-14-11.1-14
			c-0.7-3.1-3.3-17.7-2.2-35.8c1.1-18.1,11.9-32,11.9-32c7.6-4.8,11.6-12.4,12.2-21.7l0,0c1-7.1,11.1-5.1,11.1-5.1
			c7.1,9.7,16.3,2.9,16.3,2.9c15.6,10.2,16.7-3.1,16.7-3.1c4-1.8,9.5-2.4,10.8-10.4c1.3-8-1.4-13.8-1.4-13.8
			c4.4-9.8,1.2-24.6,1.2-24.6c-1-0.9-5.7,2.1-5.7,2.1c-2.6,2.2-6.2,9-6.2,9s-5.9-10.3-24.4-5.3c0,0-0.5,1.3-2.3-1.4
			c0,0-5.5-12.1-10.9-15.6c0,0-8.7,12.3-2.9,29.6l0,0c0,0-13.7,5.2-20.9,4c-6.3-5.6-14.7-9.7-23.2-9.7c-5.1,0-9.9,1.1-14.1,3.2
			c0,0,0,0,0,0c0,0,0,0,0,0c-2.1,1,1.9-1.4,0,0c-6.7,2.4-21.6,0.5-45.7,7.6C483.4,151.7,471.3,154,472,154.4
			C472,154.4,472,154.4,472,154.4z M543.4,208.9c0.4,0.1,0.8,0.1,1.2,0.2c0.1,0.2,0.2,0.6,0.4,1.1c2.1,9.4,7.5,64.2,7.5,64.2
			c0.1,1.4,0.4,2.6,0.7,3.7c-1.9-0.4-3.4-0.4-3.4-0.4c-1-2.4-7.7-36.6-8.8-45.8C540.2,224.1,541.6,211.1,543.4,208.9z"/>
		<path id="jaw-b_1_" class="st0" d="M598.5,183.2c0,0,1.8,24,21.9,5.4C620.4,188.6,607.2,190.5,598.5,183.2z"/>
	</g>
	<path class="st1" d="M646.6,178.1C646.5,178.1,646.5,178.1,646.6,178.1l-24.9-2c-0.6,0-1.1-0.6-1-1.2c0-0.6,0.6-1.1,1.2-1l24.8,2
		c0.6,0,1.1,0.6,1,1.2C647.6,177.7,647.1,178.1,646.6,178.1z"/>
	<path class="st1" d="M644.8,187.3c-0.1,0-0.3,0-0.4-0.1l-21.4-8.1c-0.6-0.2-0.9-0.9-0.6-1.4c0.2-0.6,0.9-0.9,1.4-0.6l21.4,8.1
		c0.6,0.2,0.9,0.9,0.6,1.4C645.7,187,645.2,187.3,644.8,187.3z"/>
	<path class="st1" d="M637,194.4c-0.2,0-0.5-0.1-0.7-0.2l-14.7-11.6c-0.5-0.4-0.6-1.1-0.2-1.6c0.4-0.5,1.1-0.6,1.6-0.2l14.7,11.6
		c0.5,0.4,0.6,1.1,0.2,1.6C637.7,194.2,637.4,194.4,637,194.4z"/>
	<path class="st1" d="M625.3,193.9c-0.4,0-0.8-0.2-1-0.6l-6.3-11.1c-0.3-0.5-0.1-1.2,0.4-1.5c0.5-0.3,1.2-0.1,1.5,0.4l6.3,11.1
		c0.3,0.5,0.1,1.2-0.4,1.5C625.6,193.8,625.5,193.9,625.3,193.9z"/>
	<path class="st1" d="M603.6,172.6c-0.2,0-0.3,0-0.5-0.1L581,161.2c-0.5-0.3-0.8-0.9-0.5-1.5c0.3-0.5,0.9-0.8,1.5-0.5l22.1,11.3
		c0.5,0.3,0.8,0.9,0.5,1.5C604.4,172.4,604,172.6,603.6,172.6z"/>
	<path class="st1" d="M600.6,174.4c-0.1,0-0.1,0-0.2,0L578,170c-0.6-0.1-1-0.7-0.9-1.3c0.1-0.6,0.7-1,1.3-0.9l22.4,4.3
		c0.6,0.1,1,0.7,0.9,1.3C601.6,174,601.1,174.4,600.6,174.4z"/>
	<path class="st1" d="M581,180.1c-0.6,0-1-0.4-1.1-1c-0.1-0.6,0.4-1.2,1-1.2l18.6-2.1c0.6-0.1,1.2,0.4,1.2,1c0.1,0.6-0.4,1.2-1,1.2
		l-18.6,2.1C581.1,180.1,581.1,180.1,581,180.1z"/>
	<path class="st1" d="M591.3,185.9c-0.4,0-0.8-0.2-1-0.6c-0.3-0.5-0.1-1.2,0.4-1.5l10.7-5.9c0.5-0.3,1.2-0.1,1.5,0.4
		c0.3,0.5,0.1,1.2-0.4,1.5l-10.7,5.9C591.7,185.9,591.5,185.9,591.3,185.9z"/>
	<path id="right-eye-b" class="st2" d="M607.2,160.3c0,0,1-13-13-9.7C594.2,150.6,592.9,163.9,607.2,160.3z"/>
	<path id="left-eye-b" class="st2" d="M619.4,164.7c0,0,4.1-11.7,16.8-4.2C636.3,160.5,632.4,172.6,619.4,164.7z"/>
	<path id="nose-b" class="st3" d="M611.5,167.4c0.4,0.1,0.9,0.1,1.4,0.2l0,0c0,0,0.7,0.1,1.4,0.3c0,0,0,0,0,0l0,0
		c0.4,0.1,0.8,0.2,1.1,0.3c3.2,0.8,1.8,2.2,1.8,2.2l-2.1,1.6c-1.8,1.3-2.5,1.5-2.8,1.5c0,0,0,0,0,0c0,0,0,0,0,0
		c-0.3-0.1-0.8-0.6-2-2.5l-1.4-2.3C608.9,168.7,608.2,166.9,611.5,167.4z"/>
	<path id="right-pupil-b" class="st0" d="M599.7,154.6c0.9,0.4,1.9-0.1,2.2-0.9c0.3-0.6,0.1-1.3-0.3-1.8c0.3,0,0.7,0.1,1,0.2
		c1.7,0.7,2.1,2.6,1.4,4.3c-0.7,1.7-2.3,2.6-4,1.9c-1.7-0.7-2.5-2.7-1.8-4.4c0.1-0.3,0.3-0.6,0.5-0.9
		C598.7,153.8,599.1,154.4,599.7,154.6z"/>
	<path id="left-pupil-b" class="st0" d="M626.1,161.3c0.9,0.3,2,0,2.4-0.8c0.3-0.6,0.1-1.2-0.4-1.7c0.4,0,0.7,0.1,1.1,0.2
		c1.9,0.7,2.3,2.4,1.5,4s-2.5,2.4-4.3,1.7c-1.9-0.7-2.7-2.5-2-4.1c0.1-0.3,0.3-0.6,0.6-0.8C625,160.5,625.4,161.1,626.1,161.3z"/>
</g>
<g id="phase-02_2_">
	<g>
		<path id="body-b_1_" class="st0" d="M2576.9,154.4c0,0-17.6-11.9-19.6-41.3c0,0,1.3-45.9-37.5-65.4c0,0-17.3-9.7-8.4,0
			c0,0,29.2,25.8,25.7,62.5c-2.8,29.4,1.6,37.6,23.6,54.7l0,0c-3.7,6.3-7.3,19.6-4.4,27.3c7.1,18.7,13.8,19.2,24.2,30.8
			c4.6,5-4.1,29.6-4.1,29.6c-1.2,11.2,11.8,49,11.8,49c3.5,3.8,10.3,2.7,10.3,2.7c4.4,5.6,7.7,0,7.7,0c10.9-8.3-11.2-14.5-11.2-14.5
			c-1.6-28.8,2.4-52.5,2.4-52.5s1.1,11.7,0.4,16.4c-0.8,5.7,10.6,32.7,10.6,32.7c0,8.7,4.5,8.9,4.5,8.9c4.3,2.9,10.7,0.3,10.7,0.3
			c5.6,4.5,7.5-1.7,7.5-1.7c3.3-11.4-14.2-11.6-14.2-11.6l0,0c-3.5-10.3-3.1-41-3.1-41c6.1-8.4,10-14.8,11.5-22.3
			c0.6-1.7,0.8-7.7,0.8-7.7c1,5.1,3,15,6.1,27.6c4.6,18.4,11.1,41.7,11.1,41.7c-0.3,6.9,4,8.9,4,8.9c4.1,2.8,11.3,2.3,11.3,2.3
			c5.2,3.4,7.4-0.1,7.4-0.1c1.3-2,1.9-3.8,2-5.2c2.2,0.2,3.9-0.2,3.9-0.2c4.4,5.3,7.4-0.1,7.4-0.1c10.4-8.2-11.1-14-11.1-14
			c-0.7-3.1-3.3-17.7-2.2-35.8c1.1-18.1,11.9-32,11.9-32c7.6-4.8,11.6-12.4,12.2-21.7l0,0c1-7.1,11.1-5.1,11.1-5.1
			c7.1,9.7,16.3,2.9,16.3,2.9c15.6,10.2,16.7-3.1,16.7-3.1c4-1.8,9.5-2.4,10.8-10.4c1.3-8-1.4-13.8-1.4-13.8
			c4.4-9.8,1.2-24.6,1.2-24.6c-1-0.9-5.7,2.1-5.7,2.1c-2.6,2.2-6.2,9-6.2,9s-5.9-10.3-24.4-5.3c0,0-0.5,1.3-2.3-1.4
			c0,0-5.5-12.1-10.9-15.6c0,0-8.7,12.3-2.9,29.6l0,0c0,0-13.7,5.2-20.9,4c-6.3-5.6-14.7-9.7-23.2-9.7c-5.1,0-9.9,1.1-14.1,3.2
			c0,0,0,0,0,0c0,0,0,0,0,0c-2.1,1,1.9-1.4,0,0c-6.7,2.4-21.6,0.5-45.7,7.6C2588.3,151.7,2576.2,154,2576.9,154.4
			C2576.9,154.4,2576.9,154.4,2576.9,154.4z M2648.4,208.9c0.4,0.1,0.8,0.1,1.2,0.2c0.1,0.2,0.2,0.6,0.4,1.1
			c2.1,9.4,7.5,64.2,7.5,64.2c0.1,1.4,0.4,2.6,0.7,3.7c-1.9-0.4-3.4-0.4-3.4-0.4c-1-2.4-7.7-36.6-8.8-45.8
			C2645.2,224.1,2646.5,211.1,2648.4,208.9z"/>
		<path id="jaw-b_2_" class="st0" d="M2703.4,183.2c0,0,1.8,24,21.9,5.4C2725.3,188.6,2712.1,190.5,2703.4,183.2z"/>
	</g>
	<path class="st1" d="M2751.5,178.1C2751.5,178.1,2751.4,178.1,2751.5,178.1l-24.9-2c-0.6,0-1.1-0.6-1-1.2c0-0.6,0.6-1.1,1.2-1
		l24.8,2c0.6,0,1.1,0.6,1,1.2C2752.5,177.7,2752.1,178.1,2751.5,178.1z"/>
	<path class="st1" d="M2749.7,187.3c-0.1,0-0.3,0-0.4-0.1l-21.4-8.1c-0.6-0.2-0.9-0.9-0.6-1.4c0.2-0.6,0.9-0.9,1.4-0.6l21.4,8.1
		c0.6,0.2,0.9,0.9,0.6,1.4C2750.6,187,2750.2,187.3,2749.7,187.3z"/>
	<path class="st1" d="M2742,194.4c-0.2,0-0.5-0.1-0.7-0.2l-14.7-11.6c-0.5-0.4-0.6-1.1-0.2-1.6c0.4-0.5,1.1-0.6,1.6-0.2l14.7,11.6
		c0.5,0.4,0.6,1.1,0.2,1.6C2742.6,194.2,2742.3,194.4,2742,194.4z"/>
	<path class="st1" d="M2730.2,193.9c-0.4,0-0.8-0.2-1-0.6l-6.3-11.1c-0.3-0.5-0.1-1.2,0.4-1.5c0.5-0.3,1.2-0.1,1.5,0.4l6.3,11.1
		c0.3,0.5,0.1,1.2-0.4,1.5C2730.6,193.8,2730.4,193.9,2730.2,193.9z"/>
	<path class="st1" d="M2708.6,172.6c-0.2,0-0.3,0-0.5-0.1l-22.1-11.3c-0.5-0.3-0.8-0.9-0.5-1.5c0.3-0.5,0.9-0.8,1.5-0.5l22.1,11.3
		c0.5,0.3,0.8,0.9,0.5,1.5C2709.4,172.4,2709,172.6,2708.6,172.6z"/>
	<path class="st1" d="M2705.6,174.4c-0.1,0-0.1,0-0.2,0l-22.4-4.3c-0.6-0.1-1-0.7-0.9-1.3c0.1-0.6,0.7-1,1.3-0.9l22.4,4.3
		c0.6,0.1,1,0.7,0.9,1.3C2706.5,174,2706.1,174.4,2705.6,174.4z"/>
	<path class="st1" d="M2686,180.1c-0.6,0-1-0.4-1.1-1c-0.1-0.6,0.4-1.2,1-1.2l18.6-2.1c0.6-0.1,1.2,0.4,1.2,1c0.1,0.6-0.4,1.2-1,1.2
		l-18.6,2.1C2686,180.1,2686,180.1,2686,180.1z"/>
	<path class="st1" d="M2696.2,185.9c-0.4,0-0.8-0.2-1-0.6c-0.3-0.5-0.1-1.2,0.4-1.5l10.7-5.9c0.5-0.3,1.2-0.1,1.5,0.4
		c0.3,0.5,0.1,1.2-0.4,1.5l-10.7,5.9C2696.6,185.9,2696.4,185.9,2696.2,185.9z"/>
	<path id="right-eye-b_1_" class="st2" d="M2712.1,160.3c0,0,1-13-13-9.7C2699.2,150.6,2697.8,163.9,2712.1,160.3z"/>
	<path id="left-eye-b_1_" class="st2" d="M2724.4,164.7c0,0,4.1-11.7,16.8-4.2C2741.2,160.5,2737.3,172.6,2724.4,164.7z"/>
	<path id="nose-b_1_" class="st3" d="M2716.4,167.4c0.4,0.1,0.9,0.1,1.4,0.2l0,0c0,0,0.7,0.1,1.4,0.3c0,0,0,0,0,0v0
		c0.4,0.1,0.8,0.2,1.1,0.3c3.2,0.8,1.8,2.2,1.8,2.2l-2.1,1.6c-1.8,1.3-2.5,1.5-2.8,1.5c0,0,0,0,0,0c0,0,0,0,0,0
		c-0.3-0.1-0.8-0.6-2-2.5l-1.4-2.3C2713.9,168.7,2713.2,166.9,2716.4,167.4z"/>
	<path id="right-pupil-b_1_" class="st0" d="M2704.7,154.6c0.9,0.4,1.9-0.1,2.2-0.9c0.3-0.6,0.1-1.3-0.3-1.8c0.3,0,0.7,0.1,1,0.2
		c1.7,0.7,2.1,2.6,1.4,4.3c-0.7,1.7-2.3,2.6-4,1.9c-1.7-0.7-2.5-2.7-1.8-4.4c0.1-0.3,0.3-0.6,0.5-0.9
		C2703.6,153.8,2704,154.4,2704.7,154.6z"/>
	<path id="left-pupil-b_1_" class="st0" d="M2731,161.3c0.9,0.3,2,0,2.4-0.8c0.3-0.6,0.1-1.2-0.4-1.7c0.4,0,0.7,0.1,1.1,0.2
		c1.9,0.7,2.3,2.4,1.5,4c-0.8,1.6-2.5,2.4-4.3,1.7s-2.7-2.5-2-4.1c0.1-0.3,0.3-0.6,0.6-0.8C2729.9,160.5,2730.3,161.1,2731,161.3z"
		/>
</g>
<g id="phase-03_1_">
	<g>
		<path id="body-c" class="st0" d="M816.6,161c0,0-8.8,23.7-5.9,31.4c7.1,18.7,11.8,22.6,22.1,34.2c4.6,5-7.2,20.4-7.2,20.4
			c-1.2,11.2,13.1,54.7,13.1,54.7c3.5,3.8,10.3,2.7,10.3,2.7c4.4,5.6,7.7,0,7.7,0c10.9-8.3-11.2-14.5-11.2-14.5
			c-7.2-32,5.2-51.2,5.2-51.2s0.1,9-0.6,13.8c-0.8,5.7,7.5,32.7,7.5,32.7c0,8.7,4.5,8.9,4.5,8.9c4.3,2.9,10.7,0.3,10.7,0.3
			c5.6,4.5,7.5-1.7,7.5-1.7c3.3-11.4-13.7-11.1-13.7-11.1l-0.5-0.4c-3.5-10.3-3.1-41-3.1-41c6.1-8.4,14.4-28.1,15.9-35.6
			c0.6-1.7,0.8-7.7,0.8-7.7c1,5.1,0.6,15.5,3.7,28c4.6,18.4,11.2,54.5,11.2,54.5c-0.3,6.9,4,8.9,4,8.9c4.1,2.8,4.2,2.3,4.2,2.3
			c5.2,3.4,7.4-0.1,7.4-0.1c1.3-2,1.9-3.8,2-5.2c2.2,0.2,5.7-0.2,5.7-0.2c4.4,5.3,7.4-0.1,7.4-0.1c10.4-8.2-9.4-14-9.4-14
			c-0.7-3.1-2.4-17.7-1.3-35.8c1.1-18.1,6.6-26.1,6.6-26.1c7.6-4.8,13.8-10.8,18.3-20.6l0,0c1-7.1,5.5-3.4,5.5-3.4
			c6.5,12.5,16.7,6.8,16.7,6.8c15.6,10.2,16.5-1,16.5-1c4-1.8,9.7-4,11.1-11.9c1.3-8,1.3-21,1.3-21c4.4-9.8,2.5-17.4,2.5-17.4
			c-1-0.9-5.7,2.1-5.7,2.1c-2.6,2.2-7.4,9-7.4,9s-6.3-10.3-22.6-7.4c0,0-0.5,1.3-2.3-1.4c0,0-6.2-13.6-11.6-17.1
			c0,0-9.4,6.2-3.7,23.6l0,0c0,0-8.6,3.5-15.9,2.4c0,0-2-12.2-5.3-13.7c0,0-4.4,1.2-9.4-8c0,0-3.3,3.7-11.9-5.1c0,0-2.8-0.9-5.2,1.4
			c0,0-6.7-8.6-8.4-7.5c0,0-0.3,3.4-3.8,2.7c-3.4-0.8-3.8-1.4-4.6-0.7c0,0-3.8-1.5-5.1-3.3c-1.3-1.8-2.7,3.7-2.7,4.4
			c0,0.8-5.1,1.5-7.2,0.2c-2.1-1.3-6.4,4.2-6.4,5.1c0,0.9-5.1,0.4-6.3-0.2c-1.2-0.7-0.9,5.6-5.8,5.8c0,0-0.7,6.1-4.5,4
			c0,0-0.2,8.1-7.9,9.5c0,0-3.5,1.1-3.4,4l-1.1-10.1c0,0-1.4-0.8-1.5,1c-0.1,1.8-0.4-3.7-1.5-9c-1.1-5.3-1,5.2-3.4,3.7
			c-2.4-1.5-3.4-16.3-2-20c0,0-1.9-0.8-3.9,1c0,0,0.1-7.5,3.8-9.8c3.7-2.3-5.3-2.1-11.3-31.9c0,0-5.5,0.9-8.5-5.4
			c0,0,1.8-11-34.3-26.2c0,0-0.2,3.8-7.3,0c0,0,11.7,12.2,7.8,16.8c-3.9,4.6,9.5,0,8.5,11.3c0,0,8.4,3.1,9.2,9.3
			c0.8,6.2,4.5,3.8,0.3,8.4c-4.2,4.6,9.1,0.2,7,10.6c0,0,1.4,4.5,4.5,9.4c0,0-0.7,4.4-2.1,4.4c0,0,9,4.9,8.4,7.9
			c0,0-4.1,0.7-1.8,4.1c0,0,3.4,0.4,4.2,4c0,0-3.5,2.5,0.6,5.1c0,0,0.7,2.8,5,6.4c0,0,1,1.8-2.7,0.6c-3.7-1.2,0.6,3.3,3.4,3.8
			c0,0-0.8,1.3,2.1,4.8c0,0,4.4,4.3,2.4,4.8c0,0-1.2,1.3,2.7,0.7c0,0,2.4,5.2-0.7,6.1L816.6,161z M900.2,204.1
			c0.4,0.1,0.8,0.2,1.2,0.2c0.1,0.2,0.2,0.6,0.3,1.2c1.8,10,5.1,67.6,5.1,67.6c0.1,1.5,0.3,2.7,0.6,3.9c-1.9-0.5-3.3-0.6-3.3-0.6
			c-0.9-2.6-6.3-38.7-7-48.4C896.5,220,898.3,206.4,900.2,204.1z"/>
		<path id="jaw-c" class="st0" d="M946.4,191.2c0,0-4.1,36.4,21.9,11C968.3,202.2,955.2,203.6,946.4,191.2z"/>
	</g>
	<path class="st1" d="M997.1,195.5c-0.1,0-0.2,0-0.3-0.1l-23.7-7.7c-0.6-0.2-0.9-0.8-0.7-1.4c0.2-0.6,0.8-0.9,1.4-0.7l23.7,7.7
		c0.6,0.2,0.9,0.8,0.7,1.4C998,195.2,997.6,195.5,997.1,195.5z"/>
	<path class="st1" d="M993.3,204c-0.2,0-0.4-0.1-0.6-0.2L973.7,191c-0.5-0.3-0.6-1-0.3-1.5c0.3-0.5,1-0.6,1.5-0.3l18.9,12.9
		c0.5,0.3,0.6,1,0.3,1.5C994,203.9,993.6,204,993.3,204z"/>
	<path class="st1" d="M984.1,209.1c-0.3,0-0.6-0.1-0.9-0.4L971.6,194c-0.4-0.5-0.3-1.2,0.2-1.6c0.5-0.4,1.2-0.3,1.6,0.2l11.6,14.7
		c0.4,0.5,0.3,1.2-0.2,1.6C984.6,209.1,984.3,209.1,984.1,209.1z"/>
	<path class="st1" d="M972.8,205.9c-0.5,0-0.9-0.3-1.1-0.8l-3.5-12.2c-0.2-0.6,0.2-1.2,0.8-1.4c0.6-0.2,1.2,0.2,1.4,0.8l3.5,12.2
		c0.2,0.6-0.2,1.2-0.8,1.4C973,205.9,972.9,205.9,972.8,205.9z"/>
	<path class="st1" d="M953.3,180.5c-0.2,0-0.3,0-0.5-0.1l-22.1-11.3c-0.5-0.3-0.8-0.9-0.5-1.5c0.3-0.5,0.9-0.8,1.5-0.5l22.1,11.3
		c0.5,0.3,0.8,0.9,0.5,1.5C954.1,180.3,953.7,180.5,953.3,180.5z"/>
	<path class="st1" d="M950.3,182.3c-0.1,0-0.1,0-0.2,0l-22.4-4.3c-0.6-0.1-1-0.7-0.9-1.3c0.1-0.6,0.7-1,1.3-0.9l22.4,4.3
		c0.6,0.1,1,0.7,0.9,1.3C951.2,181.9,950.8,182.3,950.3,182.3z"/>
	<path class="st1" d="M930.7,188c-0.6,0-1-0.4-1.1-1c-0.1-0.6,0.4-1.2,1-1.2l18.6-2.1c0.6-0.1,1.2,0.4,1.2,1c0.1,0.6-0.4,1.2-1,1.2
		l-18.6,2.1C930.7,188,930.7,188,930.7,188z"/>
	<path class="st1" d="M940.9,193.8c-0.4,0-0.8-0.2-1-0.6c-0.3-0.5-0.1-1.2,0.4-1.5l10.7-5.9c0.5-0.3,1.2-0.1,1.5,0.4
		c0.3,0.5,0.1,1.2-0.4,1.5l-10.7,5.9C941.3,193.8,941.1,193.8,940.9,193.8z"/>
	<path id="right-eye-c" class="st2" d="M959.1,169.6c0,0,1.7-12.9-12.4-10.4C946.7,159.2,944.7,172.4,959.1,169.6z"/>
	<path id="left-eye-c" class="st2" d="M971.2,174.6c0,0,4.5-11.4,16.1-3.3C987.3,171.3,983,183.2,971.2,174.6z"/>
	<path id="nose-c" class="st3" d="M962.8,177.9c0.4,0.1,0.9,0.2,1.4,0.3l0,0c0,0,0.7,0.2,1.4,0.4c0,0,0,0,0,0v0
		c0.4,0.1,0.8,0.2,1.1,0.3c3.1,0.9,1.8,2,1.8,2l-2.1,1.2c-1.8,0.9-2.5,1.1-2.8,1c0,0,0,0,0,0c0,0,0,0,0,0c-0.3-0.1-0.8-0.6-2-2.2
		l-1.3-2C960.3,178.8,959.6,177.2,962.8,177.9z"/>
	<path id="right-pupil-c" class="st0" d="M952,163.5c0.8,0.4,1.9,0,2.3-0.8c0.3-0.6,0.2-1.3-0.2-1.8c0.3,0,0.7,0.1,1,0.3
		c1.7,0.8,2,2.7,1.2,4.4s-2.4,2.4-4.1,1.6s-2.4-2.8-1.6-4.4c0.1-0.3,0.3-0.6,0.6-0.8C951,162.6,951.4,163.2,952,163.5z"/>
	<path id="left-pupil-c" class="st0" d="M977.6,171.6c0.9,0.4,1.9,0.1,2.3-0.7c0.3-0.6,0.2-1.2-0.3-1.7c0.3,0,0.7,0.1,1,0.3
		c1.7,0.8,2,2.6,1.2,4.1s-2.4,2.3-4.2,1.5c-1.7-0.8-2.5-2.6-1.7-4.2c0.1-0.3,0.3-0.5,0.6-0.8C976.6,170.8,977,171.3,977.6,171.6z"/>
</g>
<g id="phase-03_2_">
	<g>
		<path id="body-c_1_" class="st0" d="M2219.9,161c0,0-8.8,23.7-5.9,31.4c7.1,18.7,11.8,22.6,22.1,34.2c4.6,5-7.2,20.4-7.2,20.4
			c-1.2,11.2,13.1,54.7,13.1,54.7c3.5,3.8,10.3,2.7,10.3,2.7c4.4,5.6,7.7,0,7.7,0c10.9-8.3-11.2-14.5-11.2-14.5
			c-7.2-32,5.2-51.2,5.2-51.2s0.1,9-0.6,13.8c-0.8,5.7,7.5,32.7,7.5,32.7c0,8.7,4.5,8.9,4.5,8.9c4.3,2.9,10.7,0.3,10.7,0.3
			c5.6,4.5,7.5-1.7,7.5-1.7c3.3-11.4-13.7-11.1-13.7-11.1l-0.5-0.4c-3.5-10.3-3.1-41-3.1-41c6.1-8.4,14.4-28.1,15.9-35.6
			c0.6-1.7,0.8-7.7,0.8-7.7c1,5.1,0.6,15.5,3.7,28c4.6,18.4,11.2,54.5,11.2,54.5c-0.3,6.9,4,8.9,4,8.9c4.1,2.8,4.2,2.3,4.2,2.3
			c5.2,3.4,7.4-0.1,7.4-0.1c1.3-2,1.9-3.8,2-5.2c2.2,0.2,5.7-0.2,5.7-0.2c4.4,5.3,7.4-0.1,7.4-0.1c10.4-8.2-9.4-14-9.4-14
			c-0.7-3.1-2.4-17.7-1.3-35.8c1.1-18.1,6.6-26.1,6.6-26.1c7.6-4.8,13.8-10.8,18.3-20.6l0,0c1-7.1,5.5-3.4,5.5-3.4
			c6.5,12.5,16.7,6.8,16.7,6.8c15.6,10.2,16.5-1,16.5-1c4-1.8,9.7-4,11.1-11.9c1.3-8,1.3-21,1.3-21c4.4-9.8,2.5-17.4,2.5-17.4
			c-1-0.9-5.7,2.1-5.7,2.1c-2.6,2.2-7.4,9-7.4,9s-6.3-10.3-22.6-7.4c0,0-0.5,1.3-2.3-1.4c0,0-6.2-13.6-11.6-17.1
			c0,0-9.4,6.2-3.7,23.6l0,0c0,0-8.6,3.5-15.9,2.4c0,0-2-12.2-5.3-13.7c0,0-4.4,1.2-9.4-8c0,0-3.3,3.7-11.9-5.1c0,0-2.8-0.9-5.2,1.4
			c0,0-6.7-8.6-8.4-7.5c0,0-0.3,3.4-3.8,2.7c-3.4-0.8-3.8-1.4-4.6-0.7c0,0-3.8-1.5-5.1-3.3c-1.3-1.8-2.7,3.7-2.7,4.4
			c0,0.8-5.1,1.5-7.2,0.2c-2.1-1.3-6.4,4.2-6.4,5.1c0,0.9-5.1,0.4-6.3-0.2c-1.2-0.7-0.9,5.6-5.8,5.8c0,0-0.7,6.1-4.5,4
			c0,0-0.2,8.1-7.9,9.5c0,0-3.5,1.1-3.4,4l-1.1-10.1c0,0-1.4-0.8-1.5,1s-0.4-3.7-1.5-9c-1.1-5.3-1,5.2-3.4,3.7
			c-2.4-1.5-3.4-16.3-2-20c0,0-1.9-0.8-3.9,1c0,0,0.1-7.5,3.8-9.8c3.7-2.3-5.3-2.1-11.3-31.9c0,0-5.5,0.9-8.5-5.4
			c0,0,1.8-11-34.3-26.2c0,0-0.2,3.8-7.3,0c0,0,11.7,12.2,7.8,16.8c-3.9,4.6,9.5,0,8.5,11.3c0,0,8.4,3.1,9.2,9.3
			c0.8,6.2,4.5,3.8,0.3,8.4s9.1,0.2,7,10.6c0,0,1.4,4.5,4.5,9.4c0,0-0.7,4.4-2.1,4.4c0,0,9,4.9,8.4,7.9c0,0-4.1,0.7-1.8,4.1
			c0,0,3.4,0.4,4.2,4c0,0-3.5,2.5,0.6,5.1c0,0,0.7,2.8,5,6.4c0,0,1,1.8-2.7,0.6c-3.7-1.2,0.6,3.3,3.4,3.8c0,0-0.8,1.3,2.1,4.8
			c0,0,4.4,4.3,2.4,4.8c0,0-1.2,1.3,2.7,0.7c0,0,2.4,5.2-0.7,6.1L2219.9,161z M2303.5,204.1c0.4,0.1,0.8,0.2,1.2,0.2
			c0.1,0.2,0.2,0.6,0.3,1.2c1.8,10,5.1,67.6,5.1,67.6c0.1,1.5,0.3,2.7,0.6,3.9c-1.9-0.5-3.3-0.6-3.3-0.6c-0.9-2.6-6.3-38.7-7-48.4
			C2299.7,220,2301.6,206.4,2303.5,204.1z"/>
		<path id="jaw-c_1_" class="st0" d="M2349.7,191.2c0,0-4.1,36.4,21.9,11C2371.6,202.2,2358.5,203.6,2349.7,191.2z"/>
	</g>
	<path class="st1" d="M2400.4,195.5c-0.1,0-0.2,0-0.3-0.1l-23.7-7.7c-0.6-0.2-0.9-0.8-0.7-1.4c0.2-0.6,0.8-0.9,1.4-0.7l23.7,7.7
		c0.6,0.2,0.9,0.8,0.7,1.4C2401.3,195.2,2400.9,195.5,2400.4,195.5z"/>
	<path class="st1" d="M2396.6,204c-0.2,0-0.4-0.1-0.6-0.2L2377,191c-0.5-0.3-0.6-1-0.3-1.5c0.3-0.5,1-0.6,1.5-0.3l18.9,12.9
		c0.5,0.3,0.6,1,0.3,1.5C2397.3,203.9,2396.9,204,2396.6,204z"/>
	<path class="st1" d="M2387.4,209.1c-0.3,0-0.6-0.1-0.9-0.4l-11.6-14.7c-0.4-0.5-0.3-1.2,0.2-1.6c0.5-0.4,1.2-0.3,1.6,0.2l11.6,14.7
		c0.4,0.5,0.3,1.2-0.2,1.6C2387.9,209.1,2387.6,209.1,2387.4,209.1z"/>
	<path class="st1" d="M2376,205.9c-0.5,0-0.9-0.3-1.1-0.8l-3.5-12.2c-0.2-0.6,0.2-1.2,0.8-1.4c0.6-0.2,1.2,0.2,1.4,0.8l3.5,12.2
		c0.2,0.6-0.2,1.2-0.8,1.4C2376.3,205.9,2376.1,205.9,2376,205.9z"/>
	<path class="st1" d="M2356.6,180.5c-0.2,0-0.3,0-0.5-0.1l-22.1-11.3c-0.5-0.3-0.8-0.9-0.5-1.5c0.3-0.5,0.9-0.8,1.5-0.5l22.1,11.3
		c0.5,0.3,0.8,0.9,0.5,1.5C2357.3,180.3,2357,180.5,2356.6,180.5z"/>
	<path class="st1" d="M2353.5,182.3c-0.1,0-0.1,0-0.2,0l-22.4-4.3c-0.6-0.1-1-0.7-0.9-1.3c0.1-0.6,0.7-1,1.3-0.9l22.4,4.3
		c0.6,0.1,1,0.7,0.9,1.3C2354.5,181.9,2354.1,182.3,2353.5,182.3z"/>
	<path class="st1" d="M2333.9,188c-0.6,0-1-0.4-1.1-1c-0.1-0.6,0.4-1.2,1-1.2l18.6-2.1c0.6-0.1,1.2,0.4,1.2,1c0.1,0.6-0.4,1.2-1,1.2
		l-18.6,2.1C2334,188,2334,188,2333.9,188z"/>
	<path class="st1" d="M2344.2,193.8c-0.4,0-0.8-0.2-1-0.6c-0.3-0.5-0.1-1.2,0.4-1.5l10.7-5.9c0.5-0.3,1.2-0.1,1.5,0.4
		c0.3,0.5,0.1,1.2-0.4,1.5l-10.7,5.9C2344.6,193.8,2344.4,193.8,2344.2,193.8z"/>
	<path id="right-eye-c_1_" class="st2" d="M2362.4,169.6c0,0,1.7-12.9-12.4-10.4C2350,159.2,2347.9,172.4,2362.4,169.6z"/>
	<path id="left-eye-c_1_" class="st2" d="M2374.4,174.6c0,0,4.5-11.4,16.1-3.3C2390.6,171.3,2386.3,183.2,2374.4,174.6z"/>
	<path id="nose-c_1_" class="st3" d="M2366.1,177.9c0.4,0.1,0.9,0.2,1.4,0.3l0,0c0,0,0.7,0.2,1.4,0.4c0,0,0,0,0,0v0
		c0.4,0.1,0.8,0.2,1.1,0.3c3.1,0.9,1.8,2,1.8,2l-2.1,1.2c-1.8,0.9-2.5,1.1-2.8,1c0,0,0,0,0,0c0,0,0,0,0,0c-0.3-0.1-0.8-0.6-2-2.2
		l-1.3-2C2363.5,178.8,2362.9,177.2,2366.1,177.9z"/>
	<path id="right-pupil-c_1_" class="st0" d="M2355.3,163.5c0.8,0.4,1.9,0,2.3-0.8c0.3-0.6,0.2-1.3-0.2-1.8c0.3,0,0.7,0.1,1,0.3
		c1.7,0.8,2,2.7,1.2,4.4c-0.8,1.7-2.4,2.4-4.1,1.6c-1.7-0.8-2.4-2.8-1.6-4.4c0.1-0.3,0.3-0.6,0.6-0.8
		C2354.3,162.6,2354.7,163.2,2355.3,163.5z"/>
	<path id="left-pupil-c_1_" class="st0" d="M2380.9,171.6c0.9,0.4,1.9,0.1,2.3-0.7c0.3-0.6,0.2-1.2-0.3-1.7c0.3,0,0.7,0.1,1,0.3
		c1.7,0.8,2,2.6,1.2,4.1s-2.4,2.3-4.2,1.5c-1.7-0.8-2.5-2.6-1.7-4.2c0.1-0.3,0.3-0.5,0.6-0.8
		C2379.9,170.8,2380.2,171.3,2380.9,171.6z"/>
</g>
<g id="phase-04_1_">
	<g>
		<path id="body-d" class="st0" d="M1179.2,161.8c0,0-14.6,11-9.4,27.5c6,19.1,10.6,23.4,20.9,35.1c8,10.6-2.4,22.1-2.4,22.1
			c-1.2,11.2,7.4,55.2,7.4,55.2c3.5,3.8,10.3,2.7,10.3,2.7c4.4,5.6,7.7,0,7.7,0c10.9-8.3-11.2-12.7-11.2-12.7
			c-7.2-32,6.6-53.8,6.6-53.8s0.1,9-0.6,13.8c-0.8,5.7,7.5,32.7,7.5,32.7c0,8.7,4.5,8.9,4.5,8.9c4.3,2.9,10.2,2.9,10.2,2.9
			c5.6,4.5,7.5-1.7,7.5-1.7c3.3-11.4-13.7-11.1-13.7-11.1l-0.5-0.4c-3.5-10.3-3.1-41-3.1-41c6.1-8.4,13.9-29,15.5-36.5
			c0.6-1.7,0.8-7.7,0.8-7.7c1,5.1,2,15.9,5.1,28.5c4.6,18.4,9.8,51.8,9.8,51.8c-0.3,6.9,4,11.6,4,11.6c4.1,2.8,4.2,2.3,4.2,2.3
			c5.2,3.4,7.4-0.1,7.4-0.1c1.3-2,1.9-3.8,2-5.2c2.2,0.2,5.7-0.2,5.7-0.2c4.4,5.3,7.4-0.1,7.4-0.1c10.4-8.2-9.4-14-9.4-14
			c-0.7-3.1-1.1-19,0-37.2c1.1-18.1,5.8-26.3,5.8-26.3c7.6-4.8,5.8-3.3,10-7.5l0,0c1-7.1,6.2-10,6.2-10c4.2,10,13,6,13,6
			c8.6,10,18.4,0,18.4,0c4-1.8,9.7-4,11.1-11.9c1.3-8,2.7-19.6,2.7-19.6c4.4-9.8,2.5-17.4,2.5-17.4c-1-0.9-5.7,2.1-5.7,2.1
			c-2.6,2.2-7.4,9-7.4,9s-4.1-12.5-20.4-9.6c0,0-0.5,1.3-2.3-1.4c0,0-5.3-14.9-10.7-18.5c0,0-8.3,7.4-5.5,22.3l0,0
			c0,0-1.6,1.8-8.8,0.6c0,0-13.5-35.6-16.8-37.2c0,0-4.4,1.2-9.4-8c0,0-5.5,1.3-9.7-7.7c0,0-5-2.7-7.4-0.3c0,0-2.3-6.9-4-5.8
			c0,0-0.3,5.2-3.8,4.4c-3.4-0.8-3.8-1.4-4.6-0.7c0,0-5.1,5.1-6.4,3.3c-1.3-1.8-2.7,3.7-2.7,4.4c0,0.8-2.1,4.5-4.2,3.2
			s-6.4,4.2-6.4,5.1s-3.8,2.7-5,2c-1.2-0.7,1.3,7-3.5,7.1c0,0-0.2,8.3-4.1,6.2c0,0,3,11.3-4.6,12.7c0,0-3.5,1.1-3.4,4l-1.1-10.1
			c0,0-1.4-0.8-1.5,1s-0.4-3.7-1.5-9c-1.1-5.3-1,5.2-3.4,3.7c-2.4-1.5,1-16.3,2.4-20c0,0-1.9-0.8-3.9,1c0,0,0.1-7.5,3.8-9.8
			c3.7-2.3-9.7,2.8-15.7-27c0,0-5.5,0.9-8.5-5.4c0,0-2.7-11.4-38.7-26.7c0,0-0.2,3.8-7.3,0c0,0,6,9.5,2.1,14.2s5.1,0,4.1,11.3
			c0,0,8.4,3.1,9.2,9.3c0.8,6.2,9,3.8,4.8,8.4c-4.2,4.6,4.6,0.2,2.5,10.6c0,0,7.2,2.8,10.3,7.6c0,0-0.7,4.4-2.1,4.4
			c0,0,9,4.9,8.4,7.9c0,0,0.3,0.7,2.7,4.1c0,0,3.4,0.4,4.2,4c0,0-3.5,2.5,0.6,5.1c0,0,0.7,2.8,5,6.4c0,0,1,1.8-2.7,0.6
			c-3.7-1.2,0.6,3.3,3.4,3.8c0,0-0.8,1.3,2.1,4.8c0,0,4.4,4.3,2.4,4.8c0,0-1.2,1.3,2.7,0.7c0,0,6.9,5.2,3.8,6.1L1179.2,161.8z
			 M1260.2,204.1c0.4,0.1,0.8,0.2,1.2,0.2c0.1,0.2,0.2,1.5,0.3,2.1c1.8,10,3.8,68.5,3.8,68.5c0.1,1.5,0.3,2.7,0.6,3.9
			c-1.9-0.5-4.7-3.7-4.7-3.7c-0.9-2.6-3.6-37.4-4.4-47C1256.5,220,1258.3,206.4,1260.2,204.1z"/>
		<path id="jaw-d" class="st0" d="M1294.2,196.1c0,0-4.1,36.4,21.9,11C1316.1,207.1,1303,208.5,1294.2,196.1z"/>
	</g>
	<path class="st1" d="M1343.2,198.7c-0.1,0-0.1,0-0.2,0l-24.4-4.8c-0.6-0.1-1-0.7-0.9-1.3c0.1-0.6,0.7-1,1.3-0.9l24.4,4.8
		c0.6,0.1,1,0.7,0.9,1.3C1344.2,198.3,1343.7,198.7,1343.2,198.7z"/>
	<path class="st1" d="M1340.4,207.6c-0.2,0-0.3,0-0.5-0.1l-20.3-10.5c-0.5-0.3-0.8-0.9-0.5-1.5c0.3-0.5,0.9-0.8,1.5-0.5l20.3,10.5
		c0.5,0.3,0.8,0.9,0.5,1.5C1341.2,207.4,1340.8,207.6,1340.4,207.6z"/>
	<path class="st1" d="M1333,213.9c-0.3,0-0.6-0.1-0.8-0.3l-14-13.9c-0.4-0.4-0.4-1.1,0-1.6c0.4-0.4,1.1-0.4,1.6,0l14,13.9
		c0.4,0.4,0.4,1.1,0,1.6C1333.6,213.8,1333.3,213.9,1333,213.9z"/>
	<path class="st1" d="M1320.7,212c-0.4,0-0.8-0.3-1-0.7l-5.2-12.3c-0.2-0.6,0-1.2,0.6-1.5c0.6-0.2,1.2,0,1.5,0.6l5.2,12.3
		c0.2,0.6,0,1.2-0.6,1.5C1321,212,1320.9,212,1320.7,212z"/>
	<path class="st1" d="M1301.5,186.3c-0.2,0-0.3,0-0.5-0.1l-22.1-11.3c-0.5-0.3-0.8-0.9-0.5-1.5c0.3-0.5,0.9-0.8,1.5-0.5l22.1,11.3
		c0.5,0.3,0.8,0.9,0.5,1.5C1302.3,186.1,1301.9,186.3,1301.5,186.3z"/>
	<path class="st1" d="M1298.5,188c-0.1,0-0.1,0-0.2,0l-22.4-4.3c-0.6-0.1-1-0.7-0.9-1.3c0.1-0.6,0.7-1,1.3-0.9l22.4,4.3
		c0.6,0.1,1,0.7,0.9,1.3C1299.5,187.6,1299,188,1298.5,188z"/>
	<path class="st1" d="M1278.9,193.8c-0.6,0-1-0.4-1.1-1c-0.1-0.6,0.4-1.2,1-1.2l18.6-2.1c0.6-0.1,1.2,0.4,1.2,1
		c0.1,0.6-0.4,1.2-1,1.2l-18.6,2.1C1279,193.8,1279,193.8,1278.9,193.8z"/>
	<path class="st1" d="M1289.2,199.5c-0.4,0-0.8-0.2-1-0.6c-0.3-0.5-0.1-1.2,0.4-1.5l10.7-5.9c0.5-0.3,1.2-0.1,1.5,0.4
		c0.3,0.5,0.1,1.2-0.4,1.5l-10.7,5.9C1289.6,199.5,1289.4,199.5,1289.2,199.5z"/>
	<path id="right-eye-d" class="st2" d="M1307.8,174.4c0,0,3.1-12.6-11.2-11.8C1296.6,162.6,1293.1,175.5,1307.8,174.4z"/>
	<path id="left-eye-d" class="st2" d="M1319.1,180.7c0,0,5.7-10.9,16.4-1.5C1335.5,179.2,1329.9,190.6,1319.1,180.7z"/>
	<path id="nose-d" class="st3" d="M1310.2,183.3c0.4,0.1,0.9,0.2,1.4,0.4l0,0c0,0,0.7,0.2,1.4,0.4c0,0,0,0,0,0v0
		c0.4,0.1,0.8,0.3,1.1,0.4c3.1,1.1,1.7,2.1,1.7,2.1l-2.2,1c-1.8,0.8-2.5,0.9-2.8,0.9c0,0,0,0,0,0c0,0,0,0,0,0
		c-0.3-0.1-0.8-0.6-1.8-2.3l-1.2-2.1C1307.7,184.1,1307.1,182.5,1310.2,183.3z"/>
	<path id="right-pupil-d" class="st0" d="M1301.4,167.5c0.8,0.5,1.8,0.3,2.3-0.5c0.4-0.6,0.3-1.3,0-1.8c0.3,0.1,0.6,0.2,0.9,0.4
		c1.6,1,1.7,2.9,0.7,4.5c-1,1.6-2.7,2.1-4.3,1.2s-2.1-3-1.1-4.6c0.2-0.3,0.4-0.5,0.7-0.8C1300.5,166.5,1300.8,167.1,1301.4,167.5z"
		/>
	<path id="left-pupil-d" class="st0" d="M1325.9,178.4c0.8,0.5,1.9,0.3,2.4-0.5c0.4-0.5,0.3-1.2-0.1-1.7c0.3,0.1,0.6,0.2,0.9,0.4
		c1.6,0.9,1.7,2.8,0.8,4.2s-2.7,2-4.3,1c-1.6-0.9-2.1-2.9-1.2-4.3c0.2-0.3,0.4-0.5,0.7-0.7C1325,177.5,1325.3,178.1,1325.9,178.4z"
		/>
</g>
<g id="phase-04_2_">
	<g>
		<path id="body-d_1_" class="st0" d="M1880.9,161.8c0,0-14.6,11-9.4,27.5c6,19.1,10.6,23.4,20.9,35.1c8,10.6-2.4,22.1-2.4,22.1
			c-1.2,11.2,7.4,55.2,7.4,55.2c3.5,3.8,10.3,2.7,10.3,2.7c4.4,5.6,7.7,0,7.7,0c10.9-8.3-11.2-12.7-11.2-12.7
			c-7.2-32,6.6-53.8,6.6-53.8s0.1,9-0.6,13.8c-0.8,5.7,7.5,32.7,7.5,32.7c0,8.7,4.5,8.9,4.5,8.9c4.3,2.9,10.2,2.9,10.2,2.9
			c5.6,4.5,7.5-1.7,7.5-1.7c3.3-11.4-13.7-11.1-13.7-11.1l-0.5-0.4c-3.5-10.3-3.1-41-3.1-41c6.1-8.4,13.9-29,15.5-36.5
			c0.6-1.7,0.8-7.7,0.8-7.7c1,5.1,2,15.9,5.1,28.5c4.6,18.4,9.8,51.8,9.8,51.8c-0.3,6.9,4,11.6,4,11.6c4.1,2.8,4.2,2.3,4.2,2.3
			c5.2,3.4,7.4-0.1,7.4-0.1c1.3-2,1.9-3.8,2-5.2c2.2,0.2,5.7-0.2,5.7-0.2c4.4,5.3,7.4-0.1,7.4-0.1c10.4-8.2-9.4-14-9.4-14
			c-0.7-3.1-1.1-19,0-37.2c1.1-18.1,5.8-26.3,5.8-26.3c7.6-4.8,5.8-3.3,10-7.5l0,0c1-7.1,6.2-10,6.2-10c4.2,10,13,6,13,6
			c8.6,10,18.4,0,18.4,0c4-1.8,9.7-4,11.1-11.9s2.7-19.6,2.7-19.6c4.4-9.8,2.5-17.4,2.5-17.4c-1-0.9-5.7,2.1-5.7,2.1
			c-2.6,2.2-7.4,9-7.4,9s-4.1-12.5-20.4-9.6c0,0-0.5,1.3-2.3-1.4c0,0-5.3-14.9-10.7-18.5c0,0-8.3,7.4-5.5,22.3l0,0
			c0,0-1.6,1.8-8.8,0.6c0,0-13.5-35.6-16.8-37.2c0,0-4.4,1.2-9.4-8c0,0-5.5,1.3-9.7-7.7c0,0-5-2.7-7.4-0.3c0,0-2.3-6.9-4-5.8
			c0,0-0.3,5.2-3.8,4.4c-3.4-0.8-3.8-1.4-4.6-0.7c0,0-5.1,5.1-6.4,3.3c-1.3-1.8-2.7,3.7-2.7,4.4c0,0.8-2.1,4.5-4.2,3.2
			c-2.1-1.3-6.4,4.2-6.4,5.1s-3.8,2.7-5,2c-1.2-0.7,1.3,7-3.5,7.1c0,0-0.2,8.3-4.1,6.2c0,0,3,11.3-4.6,12.7c0,0-3.5,1.1-3.4,4
			l-1.1-10.1c0,0-1.4-0.8-1.5,1c-0.1,1.8-0.4-3.7-1.5-9c-1.1-5.3-1,5.2-3.4,3.7c-2.4-1.5,1-16.3,2.4-20c0,0-1.9-0.8-3.9,1
			c0,0,0.1-7.5,3.8-9.8c3.7-2.3-9.7,2.8-15.7-27c0,0-5.5,0.9-8.5-5.4c0,0-2.7-11.4-38.7-26.7c0,0-0.2,3.8-7.3,0c0,0,6,9.5,2.1,14.2
			s5.1,0,4.1,11.3c0,0,8.4,3.1,9.2,9.3c0.8,6.2,9,3.8,4.8,8.4c-4.2,4.6,4.6,0.2,2.5,10.6c0,0,7.2,2.8,10.3,7.6c0,0-0.7,4.4-2.1,4.4
			c0,0,9,4.9,8.4,7.9c0,0,0.3,0.7,2.7,4.1c0,0,3.4,0.4,4.2,4c0,0-3.5,2.5,0.6,5.1c0,0,0.7,2.8,5,6.4c0,0,1,1.8-2.7,0.6
			c-3.7-1.2,0.6,3.3,3.4,3.8c0,0-0.8,1.3,2.1,4.8c0,0,4.4,4.3,2.4,4.8c0,0-1.2,1.3,2.7,0.7c0,0,6.9,5.2,3.8,6.1L1880.9,161.8z
			 M1961.9,204.1c0.4,0.1,0.8,0.2,1.2,0.2c0.1,0.2,0.2,1.5,0.3,2.1c1.8,10,3.8,68.5,3.8,68.5c0.1,1.5,0.3,2.7,0.6,3.9
			c-1.9-0.5-4.7-3.7-4.7-3.7c-0.9-2.6-3.6-37.4-4.4-47C1958.1,220,1959.9,206.4,1961.9,204.1z"/>
		<path id="jaw-d_1_" class="st0" d="M1995.9,196.1c0,0-4.1,36.4,21.9,11C2017.8,207.1,2004.6,208.5,1995.9,196.1z"/>
	</g>
	<path class="st1" d="M2044.8,198.7c-0.1,0-0.1,0-0.2,0l-24.4-4.8c-0.6-0.1-1-0.7-0.9-1.3c0.1-0.6,0.7-1,1.3-0.9l24.4,4.8
		c0.6,0.1,1,0.7,0.9,1.3C2045.8,198.3,2045.3,198.7,2044.8,198.7z"/>
	<path class="st1" d="M2042,207.6c-0.2,0-0.3,0-0.5-0.1l-20.3-10.5c-0.5-0.3-0.8-0.9-0.5-1.5c0.3-0.5,0.9-0.8,1.5-0.5l20.3,10.5
		c0.5,0.3,0.8,0.9,0.5,1.5C2042.8,207.4,2042.4,207.6,2042,207.6z"/>
	<path class="st1" d="M2034.7,213.9c-0.3,0-0.6-0.1-0.8-0.3l-14-13.9c-0.4-0.4-0.4-1.1,0-1.6c0.4-0.4,1.1-0.4,1.6,0l14,13.9
		c0.4,0.4,0.4,1.1,0,1.6C2035.2,213.8,2034.9,213.9,2034.7,213.9z"/>
	<path class="st1" d="M2022.4,212c-0.4,0-0.8-0.3-1-0.7l-5.2-12.3c-0.2-0.6,0-1.2,0.6-1.5c0.6-0.2,1.2,0,1.5,0.6l5.2,12.3
		c0.2,0.6,0,1.2-0.6,1.5C2022.7,212,2022.5,212,2022.4,212z"/>
	<path class="st1" d="M2003.2,186.3c-0.2,0-0.3,0-0.5-0.1l-22.1-11.3c-0.5-0.3-0.8-0.9-0.5-1.5c0.3-0.5,0.9-0.8,1.5-0.5l22.1,11.3
		c0.5,0.3,0.8,0.9,0.5,1.5C2004,186.1,2003.6,186.3,2003.2,186.3z"/>
	<path class="st1" d="M2000.2,188c-0.1,0-0.1,0-0.2,0l-22.4-4.3c-0.6-0.1-1-0.7-0.9-1.3c0.1-0.6,0.7-1,1.3-0.9l22.4,4.3
		c0.6,0.1,1,0.7,0.9,1.3C2001.2,187.6,2000.7,188,2000.2,188z"/>
	<path class="st1" d="M1980.6,193.8c-0.6,0-1-0.4-1.1-1c-0.1-0.6,0.4-1.2,1-1.2l18.6-2.1c0.6-0.1,1.2,0.4,1.2,1
		c0.1,0.6-0.4,1.2-1,1.2l-18.6,2.1C1980.7,193.8,1980.6,193.8,1980.6,193.8z"/>
	<path class="st1" d="M1990.9,199.5c-0.4,0-0.8-0.2-1-0.6c-0.3-0.5-0.1-1.2,0.4-1.5l10.7-5.9c0.5-0.3,1.2-0.1,1.5,0.4
		c0.3,0.5,0.1,1.2-0.4,1.5l-10.7,5.9C1991.2,199.5,1991,199.5,1990.9,199.5z"/>
	<path id="right-eye-d_1_" class="st2" d="M2009.4,174.4c0,0,3.1-12.6-11.2-11.8C1998.3,162.6,1994.7,175.5,2009.4,174.4z"/>
	<path id="left-eye-d_1_" class="st2" d="M2020.8,180.7c0,0,5.7-10.9,16.4-1.5C2037.2,179.2,2031.6,190.6,2020.8,180.7z"/>
	<path id="nose-d_1_" class="st3" d="M2011.9,183.3c0.4,0.1,0.9,0.2,1.4,0.4l0,0c0,0,0.7,0.2,1.4,0.4c0,0,0,0,0,0v0
		c0.4,0.1,0.8,0.3,1.1,0.4c3.1,1.1,1.7,2.1,1.7,2.1l-2.2,1c-1.8,0.8-2.5,0.9-2.8,0.9c0,0,0,0,0,0c0,0,0,0,0,0
		c-0.3-0.1-0.8-0.6-1.8-2.3l-1.2-2.1C2009.3,184.1,2008.7,182.5,2011.9,183.3z"/>
	<path id="right-pupil-d_1_" class="st0" d="M2003,167.5c0.8,0.5,1.8,0.3,2.3-0.5c0.4-0.6,0.3-1.3,0-1.8c0.3,0.1,0.6,0.2,0.9,0.4
		c1.6,1,1.7,2.9,0.7,4.5c-1,1.6-2.7,2.1-4.3,1.2s-2.1-3-1.1-4.6c0.2-0.3,0.4-0.5,0.7-0.8C2002.1,166.5,2002.4,167.1,2003,167.5z"/>
	<path id="left-pupil-d_1_" class="st0" d="M2027.5,178.4c0.8,0.5,1.9,0.3,2.4-0.5c0.4-0.5,0.3-1.2-0.1-1.7c0.3,0.1,0.6,0.2,0.9,0.4
		c1.6,0.9,1.7,2.8,0.8,4.2s-2.7,2-4.3,1c-1.6-0.9-2.1-2.9-1.2-4.3c0.2-0.3,0.4-0.5,0.7-0.7C2026.6,177.5,2026.9,178.1,2027.5,178.4z
		"/>
</g>
<g id="phase-05">
	<g>
		<path id="body-e" class="st0" d="M1533.1,162.3c0,0-14.6,11-9.4,27.5c6,19.1,9.7,23.2,20.1,34.9c2.4,12.6,0.2,22.3,0.2,22.3
			c-1.2,11.2,5.6,55.2,5.6,55.2c3.5,3.8,10.3,2.7,10.3,2.7c4.4,5.6,7.7,0,7.7,0c10.9-8.3-8.8-13.6-8.8-13.6
			c-7.2-32,4.1-52.9,4.1-52.9s1.4,9,0.7,13.8c-0.8,5.7,8.8,32.7,8.8,32.7c0,8.7,4.5,8.9,4.5,8.9c4.3,2.9,8.4,0.3,8.4,0.3
			c5.6,4.5,7.5-1.7,7.5-1.7c3.3-11.4-12-8.5-12-8.5l-0.5-0.4c-3.5-10.3-3.1-41-3.1-41c6.1-8.4,11.3-29,12.8-36.5
			c0.6-1.7,3.9-9.4,3.9-9.4c1,5.1,2,15.9,5.1,28.5c4.6,18.4,9.8,51.8,9.8,51.8c-0.3,6.9,0.9,10.7,0.9,10.7c4.1,2.8,4.2,2.3,4.2,2.3
			c5.2,3.4,7.4-0.1,7.4-0.1c1.3-2,2.3-4.6,2.5-6.1c2.2,0.2,8.8,4.3,8.8,4.3c4.4,5.3,7.4-0.1,7.4-0.1c10.4-8.2-9.4-14-9.4-14
			c-0.7-3.1-1.1-19,0-37.2c1.1-18.1,2.2-27.2,2.2-27.2c7.6-4.8,5.8-3.3,10-7.5l0,0c1-7.1,6.2-10,6.2-10c4.2,10,15,7.9,15,7.9
			c8.6,10,17.7-1,17.7-1c4-1.8,10.6-0.9,11.9-8.8c1.3-8-1.3-24.4-1.3-24.4c4.4-9.8,1.6-18.3,1.6-18.3c-1-0.9-5.7,2.1-5.7,2.1
			c-2.6,2.2-4.7,10.8-4.7,10.8s-6.3-10.3-22.6-7.4c0,0-0.5,1.3-2.3-1.4c0,0-8-17.1-13.4-20.7c0,0-5.2,8.7-2.4,23.6l0,0
			c0,0,2,2.7-5.3,1.5c0,0-6.9-18.1-5.5-20.8c0,0-7.1-5.8-10.2-18.1c0,0-23.4-16.1-27.7-25.2c0,0-2.2,4.1-4.6,6.4
			c0,0-5.4-6.2-7.1-5.1c0,0-1.4,2.5-4.9,1.8c-3.4-0.8-6.9-2.3-7.7-1.5c0,0-1.5,6.6-2.9,4.9c-1.3-1.8,1.5,4.2-2,4
			c-0.8,0-5.5-1.1-5.1,1.3c0.7,4-3.1,2.7-3.1,3.5s-5,1.8-6.2,1.1c-1.2-0.7,1.3,12.1-3.5,12.2c0,0,4.5,11.6,0.7,9.5
			c0,0,3.7,4.8-4,6.2c0,0-0.3,2-0.2,4.9l-1.5-9.2c0,0-1.4-0.8-1.5,1c-0.1,1.8,3.4-6.5,2.3-11.8c-1.1-5.3-1,5.2-3.4,3.7
			s1.1-15.8,2.5-19.6c0,0-1.9-0.8-3.9,1c0,0-6.4-7.5-2.7-9.8c3.7-2.3-3.9-2.5-10.1-20.7c0,0-11.9,3.5-10.6-9.3
			c0,0-10.2-16.1-43.1-21.9c0,0-7.5,2.7-14.6-1.1c0,0,10.6,11.9,6.7,16.6s5.1,0,4.1,11.3c0,0,5.2,5.8,6,11.9c0.8,6.2,9,3.8,4.8,8.4
			c-4.2,4.6,4.6,0.2,2.5,10.6c0,0,8.4,4.8,11.5,9.7c0,0-0.7,4.4-2.1,4.4c0,0,9,4.9,8.4,7.9c0,0,0.3,0.7,2.7,4.1c0,0,3.4,0.4,4.2,4
			c0,0-3.5,2.5,0.6,5.1c0,0,3.1,0.3,7.4,3.9c0,0,1,1.8-2.7,0.6c-3.7-1.2,0.6,3.3,3.4,3.8c0,0-0.8,1.3,2.1,4.8c0,0,4.4,4.3,2.4,4.8
			c0,0-1.2,1.3,2.7,0.7c0,0,9.1,1.7,6,2.5L1533.1,162.3z M1617.2,204.6c0.4,0.1,0.8,0.2,1.2,0.2c0.1,0.2,0.2,1.5,0.3,2.1
			c1.8,10,3.8,68.5,3.8,68.5c0.1,1.5,0.3,2.7,0.6,3.9c-1.9-0.5-4.7-3.7-4.7-3.7c-0.9-2.6-3.6-37.4-4.4-47
			C1613.4,220.5,1615.2,206.9,1617.2,204.6z"/>
		<path id="jaw-e" class="st0" d="M1648.9,201.2c0,0,0.8,36.6,23.2,8C1672.1,209.2,1659.3,212.3,1648.9,201.2z"/>
	</g>
	<path class="st1" d="M1698.3,197c0,0-0.1,0-0.1,0l-24.7-2.6c-0.6-0.1-1-0.6-1-1.2c0.1-0.6,0.6-1,1.2-1l24.7,2.6
		c0.6,0.1,1,0.6,1,1.2C1699.3,196.6,1698.8,197,1698.3,197z"/>
	<path class="st1" d="M1696.3,206.1c-0.1,0-0.3,0-0.4-0.1l-21.2-8.6c-0.6-0.2-0.8-0.9-0.6-1.4c0.2-0.6,0.9-0.8,1.4-0.6l21.2,8.6
		c0.6,0.2,0.8,0.9,0.6,1.4C1697.1,205.9,1696.7,206.1,1696.3,206.1z"/>
	<path class="st1" d="M1688.4,213c-0.2,0-0.5-0.1-0.7-0.3l-14.5-11.9c-0.5-0.4-0.5-1.1-0.1-1.6c0.4-0.5,1.1-0.5,1.6-0.1l14.5,11.9
		c0.5,0.4,0.5,1.1,0.1,1.6C1689,212.9,1688.7,213,1688.4,213z"/>
	<path class="st1" d="M1676.6,212.3c-0.4,0-0.8-0.2-1-0.6l-6-11.2c-0.3-0.5-0.1-1.2,0.5-1.5c0.5-0.3,1.2-0.1,1.5,0.5l6,11.2
		c0.3,0.5,0.1,1.2-0.5,1.5C1677,212.2,1676.8,212.3,1676.6,212.3z"/>
	<path class="st1" d="M1657.3,188c-0.2,0-0.4-0.1-0.6-0.2l-21.1-13.1c-0.5-0.3-0.7-1-0.4-1.5c0.3-0.5,1-0.7,1.5-0.4l21.1,13.1
		c0.5,0.3,0.7,1,0.4,1.5C1658.1,187.8,1657.7,188,1657.3,188z"/>
	<path class="st1" d="M1654.2,189.4c-0.1,0-0.2,0-0.3,0l-22-6.2c-0.6-0.2-0.9-0.8-0.8-1.4c0.2-0.6,0.8-0.9,1.4-0.8l22,6.2
		c0.6,0.2,0.9,0.8,0.8,1.4C1655.1,189.1,1654.7,189.4,1654.2,189.4z"/>
	<path class="st1" d="M1634.2,193.6c-0.6,0-1.1-0.5-1.1-1.1c0-0.6,0.5-1.1,1.1-1.1l18.7-0.6c0,0,0,0,0,0c0.6,0,1.1,0.5,1.1,1.1
		c0,0.6-0.5,1.1-1.1,1.1L1634.2,193.6C1634.2,193.6,1634.2,193.6,1634.2,193.6z"/>
	<path class="st1" d="M1643.9,200.2c-0.4,0-0.8-0.2-1-0.7c-0.2-0.6,0-1.2,0.6-1.5l11.2-5c0.6-0.2,1.2,0,1.5,0.6
		c0.2,0.6,0,1.2-0.6,1.5l-11.2,5C1644.2,200.1,1644.1,200.2,1643.9,200.2z"/>
	<path id="right-eye-e" class="st2" d="M1661.8,175.9c0,0,1.5-11.5-12.5-9.2C1649.3,166.7,1647.3,178.5,1661.8,175.9z"/>
	<path id="left-eye-e" class="st2" d="M1673.9,180.2c0,0,4.3-10.2,16.1-3.1C1689.9,177.1,1685.8,187.8,1673.9,180.2z"/>
	<path id="nose-e" class="st3" d="M1665.3,184.2c0.4,0,0.9,0.1,1.4,0.1v0c0,0,0.7,0.1,1.5,0.1c0,0,0,0,0,0v0c0.4,0,0.8,0.1,1.2,0.1
		c3.2,0.5,2.1,1.7,2.1,1.7l-1.9,1.5c-1.6,1.1-2.3,1.4-2.6,1.4c0,0,0,0,0,0c0,0,0,0,0,0c-0.3-0.1-0.9-0.4-2.3-1.9l-1.6-1.8
		C1663,185.4,1662,184,1665.3,184.2z"/>
	<path id="right-pupil-e" class="st0" d="M1654.6,170.5c0.8,0.3,1.9,0,2.2-0.7c0.3-0.5,0.2-1.2-0.3-1.6c0.3,0,0.7,0.1,1,0.2
		c1.7,0.7,2,2.4,1.2,3.9c-0.8,1.5-2.4,2.2-4.1,1.5c-1.7-0.7-2.4-2.5-1.6-3.9c0.1-0.3,0.3-0.5,0.6-0.7
		C1653.6,169.7,1653.9,170.3,1654.6,170.5z"/>
	<path id="left-pupil-e" class="st0" d="M1680.2,177.5c0.9,0.3,1.9,0,2.3-0.7c0.3-0.5,0.2-1.1-0.3-1.5c0.3,0,0.7,0.1,1,0.2
		c1.7,0.7,2.1,2.3,1.3,3.7c-0.8,1.4-2.4,2-4.1,1.4s-2.5-2.3-1.7-3.7c0.1-0.3,0.3-0.5,0.6-0.7
		C1679.2,176.7,1679.6,177.2,1680.2,177.5z"/>
</g>
</svg>
